<svg width="2140" height="840" viewBox="0 0 2140 840" fill="none" xmlns="http://www.w3.org/2000/svg">
<line y1="-0.5" x2="2296.73" y2="-0.5" transform="matrix(0.930889 0.365302 -0.565711 0.824603 1 1)" stroke="white"/>
<line y1="-0.5" x2="2296.73" y2="-0.5" transform="matrix(-0.930889 0.365302 0.565711 0.824603 2139 1)" stroke="white"/>
<rect x="739.289" y="291.5" width="661.423" height="260" fill="black" stroke="white"/>
<path d="M139.831 626.5V198L467.737 319.5V528.5L139.831 626.5Z" stroke="white"/>
<path d="M2072.89 685V139L1655.07 293.817V560.127L2072.89 685Z" stroke="white"/>
<path d="M530.541 504.5V328L685.239 373V469.5L530.541 504.5Z" stroke="white"/>
<path d="M1453.44 508V339.5L1550.62 309.5V538.5L1453.44 508Z" stroke="white"/>
<path d="M420.137 692.5L785.065 532.5H892.824V626L642.267 817H420.137V692.5Z" fill="black"/>
<path d="M420.137 692.5L785.065 532.5H892.824M420.137 692.5H642.267M420.137 692.5V817H642.267M642.267 692.5L892.824 532.5M642.267 692.5V817M892.824 532.5V626L642.267 817" stroke="white"/>
<path d="M1690.11 692.5L1325.18 532.5H1217.43V626L1467.98 817H1690.11V692.5Z" fill="black"/>
<path d="M1690.11 692.5L1325.18 532.5H1217.43M1690.11 692.5H1467.98M1690.11 692.5V817H1467.98M1467.98 692.5L1217.43 532.5M1467.98 692.5V817M1217.43 532.5V626L1467.98 817" stroke="white"/>
</svg>
