<svg width="2140" height="840" viewBox="0 0 2140 840" fill="none" xmlns="http://www.w3.org/2000/svg">
<g clip-path="url(#clip0_798_985)">
<path d="M1.2832 0.587891L2139.28 839.588" stroke="white"/>
<path d="M2138.72 0.587891L0.716098 839.588" stroke="white"/>
<path d="M2139.5 0L1400.5 291.5V551.5L2139.5 840.5" stroke="white"/>
<path d="M0 0L739 291.5V551.5L0 840.5" stroke="white"/>
<path d="M1400.71 291.5H739.289V551.5H1400.71V291.5Z" fill="black" stroke="white"/>
<path d="M139.831 626.5V198L467.737 319.5V528.5L139.831 626.5Z" stroke="white"/>
<path d="M2072.89 685V139L1655.07 293.817V560.127L2072.89 685Z" stroke="white"/>
<path d="M530.541 504.5V328L685.239 373V469.5L530.541 504.5Z" stroke="white"/>
<path d="M1453.44 508V339.5L1550.62 309.5V538.5L1453.44 508Z" stroke="white"/>
<path d="M420.137 692.5L785.065 532.5H892.824V626L642.267 817H420.137V692.5Z" fill="black"/>
<path d="M420.137 692.5L785.065 532.5H892.824M420.137 692.5H642.267M420.137 692.5V817H642.267M892.824 532.5L642.267 692.5M892.824 532.5V626L642.267 817M642.267 692.5V817" stroke="white"/>
<path d="M1718.69 692L1353.76 532H1246V625.5L1496.56 816.5H1718.69V692Z" fill="black"/>
<path d="M1718.69 692L1353.76 532H1246M1718.69 692H1496.56M1718.69 692V816.5H1496.56M1246 532L1496.56 692M1246 532V625.5L1496.56 816.5M1496.56 692V816.5" stroke="white"/>
<rect x="774.5" y="328.5" width="211" height="148" stroke="white"/>
<rect x="1010.5" y="328.5" width="211" height="148" stroke="white"/>
</g>
<defs>
<clipPath id="clip0_798_985">
<rect width="2140" height="840" fill="white"/>
</clipPath>
</defs>
</svg>
