<?xml version="1.0" standalone="no"?>
<!DOCTYPE svg PUBLIC "-//W3C//DTD SVG 20010904//EN"
 "http://www.w3.org/TR/2001/REC-SVG-20010904/DTD/svg10.dtd">
<svg version="1.0" xmlns="http://www.w3.org/2000/svg"
 width="700.000000pt" height="700.000000pt" viewBox="0 0 700.000000 700.000000"
 preserveAspectRatio="xMidYMid meet">
<metadata>
Created by potrace 1.14, written by Peter Selinger 2001-2017
</metadata>
<g transform="translate(0.000000,700.000000) scale(0.100000,-0.100000)"
fill="#000000" stroke="none">
<path d="M0 3500 l0 -3500 3500 0 3500 0 0 3500 0 3500 -3500 0 -3500 0 0
-3500z m2299 2818 c4 -13 61 -267 126 -565 66 -299 121 -543 124 -543 3 0 71
244 150 543 79 298 148 552 152 565 8 22 10 22 208 22 l200 0 10 -37 c6 -21
69 -274 141 -563 72 -289 134 -533 138 -544 5 -12 45 153 116 475 59 272 117
533 128 582 l20 87 324 0 324 0 2 -372 3 -372 335 365 c184 200 339 367 345
371 17 13 445 10 445 -3 0 -6 -139 -154 -310 -330 l-310 -319 53 -83 c30 -45
176 -270 326 -501 150 -230 275 -424 278 -432 4 -12 -30 -14 -213 -14 l-219 0
-230 395 -230 395 -137 -139 -138 -140 0 -255 0 -256 -170 0 -170 0 -2 760 -3
760 -184 -760 -185 -760 -181 0 -181 0 -165 619 c-90 341 -167 617 -170 613
-4 -4 -77 -275 -164 -602 -87 -327 -160 -603 -163 -613 -4 -16 -20 -17 -190
-15 l-185 3 -168 703 c-92 387 -170 709 -173 715 -2 7 -5 4 -5 -5 -1 -17 -29
-18 -451 -18 l-450 0 0 -185 0 -185 420 0 420 0 0 -145 0 -145 -420 0 -420 0
0 -225 0 -225 470 0 470 0 0 -145 0 -145 -640 0 -640 0 0 845 0 845 765 0 765
0 9 -22z"/>
</g>
</svg>
